<?xml version="1.0" encoding="UTF-8" standalone="no"?>
<svg
   xmlns:sketch="http://www.bohemiancoding.com/sketch/ns"
   xmlns:dc="http://purl.org/dc/elements/1.1/"
   xmlns:cc="http://creativecommons.org/ns#"
   xmlns:rdf="http://www.w3.org/1999/02/22-rdf-syntax-ns#"
   xmlns:svg="http://www.w3.org/2000/svg"
   xmlns="http://www.w3.org/2000/svg"
   xmlns:sodipodi="http://sodipodi.sourceforge.net/DTD/sodipodi-0.dtd"
   xmlns:inkscape="http://www.inkscape.org/namespaces/inkscape"
   sodipodi:docname="window.svg"
   height="100%"
   width="100%"
   inkscape:version="1.0 (4035a4fb49, 2020-05-01)"
   version="1.1"
   id="svg"
   viewBox="0 0 22 22">
  <defs
     id="defs81">
    <style
       type="text/css"
       id="current-color-scheme">
      .ColorScheme-Text {
        color:#7B7C7E;
      }
      .ColorScheme-Background{
        color:#EFF0F1;
      }
      .ColorScheme-Highlight{
        color:#3DAEE6;
      }
      .ColorScheme-ViewText {
        color:#7B7C7E;
      }
      .ColorScheme-ViewBackground{
        color:#FCFCFC;
      }
      .ColorScheme-ViewHover {
        color:#3DAEE6;
      }
      .ColorScheme-ViewFocus{
        color:#1E92FF;
      }
      .ColorScheme-ButtonText {
        color:#7B7C7E;
      }
      .ColorScheme-ButtonBackground{
        color:#EFF0F1;
      }
      .ColorScheme-ButtonHover {
        color:#3DAEE6;
      }
      .ColorScheme-ButtonFocus{
        color:#1E92FF;
      }
</style>
  </defs>
  <metadata
     id="metadata34">
    <rdf:RDF>
      <cc:Work
         rdf:about="">
        <dc:format>image/svg+xml</dc:format>
        <dc:type
           rdf:resource="http://purl.org/dc/dcmitype/StillImage" />
        <dc:title />
      </cc:Work>
    </rdf:RDF>
  </metadata>
  <sodipodi:namedview
     inkscape:document-rotation="0"
     inkscape:showpageshadow="false"
     inkscape:bbox-nodes="true"
     inkscape:object-paths="true"
     inkscape:snap-bbox="true"
     inkscape:guide-bbox="true"
     showguides="false"
     borderlayer="true"
     inkscape:current-layer="svg"
     inkscape:window-maximized="1"
     inkscape:window-y="0"
     inkscape:window-x="0"
     inkscape:cy="22.573573"
     inkscape:cx="-24.118885"
     inkscape:zoom="15.954095"
     showgrid="false"
     id="namedview32"
     inkscape:window-height="1024"
     inkscape:window-width="1920"
     inkscape:pageshadow="2"
     inkscape:pageopacity="1"
     guidetolerance="10"
     gridtolerance="10"
     objecttolerance="10"
     borderopacity="1"
     bordercolor="#000000"
     pagecolor="#e1e1e1">
    <inkscape:grid
       snapvisiblegridlinesonly="true"
       enabled="true"
       visible="true"
       empspacing="5"
       id="grid3046"
       type="xygrid" />
  </sodipodi:namedview>
  <g
     id="window-close">
    <rect
       d="M 0,0 22,0 22,22 0,22 z"
       style="fill:#566060;fill-opacity:0;stroke:none"
       id="rect3763"
       width="22"
       height="22"
       x="0"
       y="0" />
    <g
       transform="matrix(0.87855142,0,0,0.87855142,1.2956548,-903.96734)"
       id="layer1"
       inkscape:label="Capa 1"
       style="fill:#ffffff;fill-opacity:1">
      <g
         style="fill:#ffffff;fill-opacity:1"
         inkscape:label="Capa 1"
         id="layer1-6"
         transform="matrix(0.9157823,0,0,0.9157823,-530.08465,471.22303)">
        <g
           id="g5548"
           sketch:type="MSShapeGroup"
           transform="matrix(0.14300539,0,0,0.14300539,554.04072,610.29161)"
           style="fill:#ffffff;fill-opacity:1">
          <g
             transform="matrix(16.049617,0,0,16.049617,-12213.761,-3046.8513)"
             id="layer1-9"
             inkscape:label="Layer 1"
             style="fill:#ffffff;fill-opacity:1">
            <g
               inkscape:label="Capa 1"
               id="layer1-2"
               transform="matrix(0.37907185,0,0,0.37907185,615.60988,-10.010196)"
               style="fill:#ffffff;fill-opacity:1">
              <g
                 style="fill:#ffffff;fill-opacity:1"
                 transform="matrix(0.20663505,0,0,0.20663505,416.2249,531.51293)"
                 sketch:type="MSLayerGroup"
                 id="remove11">
                <path
                   style="fill:#00aaff;fill-opacity:1"
                   inkscape:connector-curvature="0"
                   sketch:type="MSShapeGroup"
                   id="path1028"
                   d="m 68.988857,47.999993 23.953,-23.953 c 1.521,-1.52 2.281,-3.367 2.281,-5.54 0,-2.173 -0.761,-4.019 -2.281,-5.54 l -11.08,-11.0809998 c -1.521,-1.52099998 -3.367,-2.28099998 -5.539,-2.28099998 -2.174,0 -4.02,0.76 -5.541,2.28099998 l -23.953,23.9529998 -23.953,-23.9529998 c -1.52,-1.52099998 -3.367,-2.28099998 -5.54,-2.28099998 -2.172,0 -4.019,0.76 -5.54,2.28099998 L 0.7148571,12.966993 c -1.51999992,1.52 -2.2809999,3.367 -2.2809999,5.54 0,2.173 0.75999998,4.019 2.2809999,5.54 l 23.9529999,23.953 -23.9529999,23.953 c -1.51999992,1.521 -2.2809999,3.367 -2.2809999,5.54 0,2.173 0.75999998,4.019 2.2809999,5.54 l 11.0809999,11.08 c 1.521,1.521 3.368,2.281 5.54,2.281 2.173,0 4.019,-0.761 5.54,-2.281 l 23.953,-23.953 23.954,23.953 c 1.521,1.521 3.366,2.281 5.541,2.281 2.172,0 4.019,-0.761 5.539,-2.281 l 11.079,-11.08 c 1.521,-1.52 2.281,-3.367 2.281,-5.54 0,-2.173 -0.76,-4.019 -2.281,-5.54 l -23.953,-23.953 0,0 z" />
              </g>
            </g>
          </g>
        </g>
      </g>
    </g>
  </g>
  <g
     id="window-pin">
    <g
       id="e"
       transform="matrix(1.1111111,0,0,1.1111111,10.755556,-20.722222)"
       inkscape:label=""
       style="fill:none;stroke:none">
      <circle
         r="4.5"
         cy="42.5"
         cx="-27.5"
         id="path4145"
         style="opacity:1;fill:none;fill-opacity:1;fill-rule:evenodd;stroke:none;stroke-width:1;stroke-linecap:round;stroke-linejoin:round;stroke-miterlimit:4;stroke-dasharray:none;stroke-dashoffset:0;stroke-opacity:1" />
    </g>
    <g
       id="e-5"
       transform="matrix(0.7125,0,0,0.7125,-1.3937488,-2.5937493)"
       inkscape:label="">
      <ellipse
         ry="3.1541483"
         rx="3.2296062"
         cy="40.95924"
         cx="-25.887001"
         id="path4145-9"
         style="opacity:1;fill:#00aaff;fill-opacity:1;fill-rule:evenodd;stroke:#00aaff;stroke-width:0.709247;stroke-linecap:round;stroke-linejoin:round;stroke-miterlimit:4;stroke-dasharray:none;stroke-dashoffset:0;stroke-opacity:1" />
    </g>
  </g>
  <g
     id="window-unpin"
     transform="translate(12.799999)">
    <g
       id="e-0"
       transform="matrix(1.1111111,0,0,1.1111111,10.755556,-20.722222)"
       inkscape:label=""
       style="fill:none;stroke:none">
      <circle
         r="4.5"
         cy="42.5"
         cx="-27.5"
         id="path4145-2"
         style="opacity:1;fill:none;fill-opacity:1;fill-rule:evenodd;stroke:none;stroke-width:1;stroke-linecap:round;stroke-linejoin:round;stroke-miterlimit:4;stroke-dasharray:none;stroke-dashoffset:0;stroke-opacity:1" />
    </g>
    <g
       id="e-5-5"
       transform="matrix(0.7125,0,0,0.7125,-1.3937488,-2.5937493)"
       inkscape:label="">
      <ellipse
         ry="3.1541483"
         rx="3.2296064"
         cy="40.833332"
         cx="-25.757875"
         id="path4145-9-6"
         style="opacity:1;fill:#ffffff;fill-opacity:1;fill-rule:evenodd;stroke:#ffffff;stroke-width:0.709247;stroke-linecap:round;stroke-linejoin:round;stroke-miterlimit:4;stroke-dasharray:none;stroke-dashoffset:0;stroke-opacity:1" />
    </g>
  </g>
</svg>
